<svg width="32" height="22" viewBox="0 0 34 48" fill="none" xmlns="http://www.w3.org/2000/svg">
<path d="M14.5487 15.5002C16.2187 17.1702 23.0987 24.0402 23.0987 24.0402C23.0987 24.0402 16.9987 30.1402 14.7687 32.3802C13.2587 33.8902 9.9887 33.8202 8.5187 32.3602C7.0587 30.9002 0.1987 24.0402 0.1987 24.0402C0.1987 24.0402 6.7287 17.4102 8.5687 15.5702C10.3287 13.8102 12.8887 13.8302 14.5587 15.4902L14.5487 15.5002Z" fill="#E60012"/>
<path d="M32.7387 14.4701C31.0787 16.1401 24.1887 23.0201 24.1887 23.0201C24.1887 23.0201 18.0887 16.9201 15.8587 14.6901C14.3487 13.1801 14.4187 9.90012 15.8787 8.44012C17.3387 6.98012 24.1987 0.120117 24.1987 0.120117C24.1987 0.120117 30.8287 6.64012 32.6687 8.49012C34.4287 10.2501 34.4087 12.8101 32.7487 14.4801L32.7387 14.4701Z" fill="#E60012"/>
<path d="M32.7187 33.5302C31.0487 31.8602 24.1787 24.9802 24.1787 24.9802C24.1787 24.9802 18.0787 31.0802 15.8487 33.3102C14.3387 34.8202 14.4087 38.1002 15.8687 39.5602C17.3287 41.0202 24.1787 47.8802 24.1787 47.8802C24.1787 47.8802 30.8087 41.3602 32.6487 39.5202C34.4087 37.7602 34.3887 35.1902 32.7287 33.5202L32.7187 33.5302Z" fill="#E60012"/>
</svg>
