<svg width="16" height="22" viewBox="0 0 16 22" fill="none" xmlns="http://www.w3.org/2000/svg">
<path d="M6.61225 7.08459C7.38176 7.85385 10.552 11.0184 10.552 11.0184C10.552 11.0184 7.74117 13.8283 6.71362 14.8601C6.01784 15.5557 4.51107 15.5235 3.83372 14.8509C3.16098 14.1784 0 11.0184 0 11.0184C0 11.0184 3.00892 7.96441 3.85676 7.11683C4.66774 6.30611 5.84735 6.31533 6.61686 7.07998L6.61225 7.08459Z" fill="#E60012"/>
<path d="M14.9938 6.61013C14.2289 7.3794 11.0541 10.5486 11.0541 10.5486C11.0541 10.5486 8.24329 7.73869 7.21574 6.71147C6.51996 6.01591 6.55221 4.50502 7.22495 3.8325C7.8977 3.15997 11.0587 0 11.0587 0C11.0587 0 14.1137 3.00335 14.9615 3.85553C15.7725 4.66625 15.7633 5.84548 14.9984 6.61474L14.9938 6.61013Z" fill="#E60012"/>
<path d="M14.9848 15.3899C14.2153 14.6206 11.0497 11.4514 11.0497 11.4514C11.0497 11.4514 8.23889 14.2613 7.21134 15.2885C6.51556 15.9841 6.54782 17.495 7.22056 18.1675C7.8933 18.84 11.0497 22 11.0497 22C11.0497 22 14.1047 18.9967 14.9525 18.1491C15.7635 17.3384 15.7543 16.1545 14.9894 15.3853L14.9848 15.3899Z" fill="#E60012"/>
</svg>
